<svg width="669" height="107" viewBox="0 0 669 107" fill="none" xmlns="http://www.w3.org/2000/svg">
<g clip-path="url(#clip0_1259_80)">
<path d="M144.448 81.9958C143.439 81.9958 142.507 81.6854 141.653 81.1422C140.799 80.5214 140.256 79.8231 139.867 78.8919L124.185 31.9462C123.719 29.9287 123.719 28.2991 124.263 27.0576C124.806 25.8161 125.971 25.1953 127.756 25.1953C128.921 25.1953 129.93 25.5057 130.784 26.204C131.638 26.8248 132.259 27.9112 132.725 29.3855L146.233 71.4427H143.05L155.86 28.9199C156.171 27.9112 156.636 26.98 157.49 26.3592C158.267 25.6609 159.354 25.3505 160.673 25.3505C161.915 25.3505 162.925 25.6609 163.701 26.3592C164.477 26.98 165.021 27.9112 165.331 28.9975L176.355 69.5028H174.725L187.612 29.5407C188.544 26.7472 190.174 25.3505 192.503 25.3505C194.289 25.3505 195.531 25.9712 196.152 27.2904C196.773 28.6095 196.773 30.1614 196.075 32.1014L180.392 79.0471C180.082 79.9783 179.538 80.6766 178.762 81.2974C177.908 81.9182 176.976 82.1509 175.967 82.1509C174.958 82.1509 173.949 81.8406 173.095 81.2974C172.163 80.6766 171.62 79.9783 171.309 79.0471L159.897 38.1539H160.906L149.028 79.0471C148.718 79.9783 148.174 80.6766 147.398 81.2974C146.466 81.6854 145.535 81.9958 144.448 81.9958Z" fill="#E0E2EA"/>
<path d="M231.864 82.3836C226.197 82.3836 221.15 81.1421 216.725 78.7366C212.3 76.2535 208.807 72.9169 206.322 68.5715C203.838 64.2261 202.596 59.2599 202.596 53.673C202.596 48.0085 203.76 42.9647 206.089 38.6969C208.418 34.3515 211.679 31.0149 215.871 28.5318C220.063 26.0487 224.877 24.8848 230.234 24.8848C235.59 24.8848 240.171 26.0487 244.13 28.4542C248.012 30.8597 251.04 34.1187 253.136 38.3089C255.232 42.4991 256.241 47.3101 256.241 52.8194C256.241 54.061 255.853 55.0697 254.999 55.8457C254.145 56.6217 253.058 57.0096 251.816 57.0096H209.272V49.25H251.971L247.624 52.2763C247.624 48.6292 246.925 45.3702 245.528 42.4991C244.13 39.6281 242.189 37.3778 239.627 35.6707C237.065 34.0412 233.96 33.1876 230.389 33.1876C226.429 33.1876 223.014 34.0411 220.141 35.8259C217.269 37.6106 215.095 40.0161 213.62 43.1199C212.145 46.2238 211.368 49.7932 211.368 53.673C211.368 57.6304 212.222 61.1222 214.008 64.2261C215.794 67.3299 218.2 69.7354 221.306 71.5201C224.411 73.3049 227.905 74.1584 231.942 74.1584C234.193 74.1584 236.522 73.7704 238.851 72.9169C241.18 72.0633 243.043 71.1322 244.518 70.0458C245.45 69.3474 246.537 68.9595 247.624 68.9595C248.711 68.9595 249.72 69.2699 250.496 69.9682C251.583 70.977 252.204 71.9857 252.282 73.1497C252.359 74.3136 251.816 75.2448 250.729 76.0983C248.478 77.9606 245.528 79.5126 242.034 80.7541C238.385 81.7629 235.047 82.3836 231.864 82.3836Z" fill="#E0E2EA"/>
<path d="M298.474 82.3828C293.04 82.3828 288.226 81.1413 283.879 78.6582C279.531 76.1751 276.115 72.7609 273.631 68.4155C271.147 64.0701 269.827 59.1039 269.749 53.6722V5.79534C269.749 4.32101 270.215 3.15707 271.069 2.30351C272.001 1.37235 273.165 0.984375 274.563 0.984375C276.038 0.984375 277.202 1.44995 278.056 2.30351C278.988 3.23466 279.376 4.39861 279.376 5.79534V34.6611C281.705 31.6349 284.655 29.2294 288.226 27.4447C291.72 25.6599 295.679 24.8064 299.949 24.8064C305.073 24.8064 309.653 26.0479 313.768 28.6086C317.883 31.1693 321.066 34.5835 323.472 38.8513C325.879 43.1967 327.043 48.0853 327.043 53.517C327.043 58.9487 325.801 63.9149 323.239 68.2603C320.677 72.6057 317.262 76.0975 312.992 78.5806C308.799 81.1413 303.908 82.3828 298.474 82.3828ZM298.474 73.7696C302.123 73.7696 305.461 72.9161 308.334 71.1314C311.206 69.3466 313.535 66.9412 315.243 63.8373C316.951 60.7335 317.805 57.3192 317.805 53.517C317.805 49.6372 316.951 46.223 315.243 43.1967C313.535 40.1704 311.206 37.765 308.334 36.0578C305.461 34.2731 302.123 33.4196 298.474 33.4196C294.825 33.4196 291.487 34.2731 288.615 36.0578C285.742 37.8426 283.413 40.248 281.783 43.1967C280.152 46.1454 279.298 49.6372 279.298 53.517C279.298 57.3192 280.152 60.7335 281.783 63.8373C283.413 66.9412 285.742 69.3466 288.615 71.1314C291.487 72.9161 294.748 73.7696 298.474 73.7696Z" fill="#E0E2EA"/>
<path d="M366.87 82.383C361.746 82.383 357.166 81.1415 353.051 78.6584C348.936 76.1753 345.753 72.7611 343.424 68.4157C341.095 64.0703 339.931 59.1041 339.931 53.6724C339.931 48.1631 341.173 43.1969 343.735 38.8515C346.297 34.5061 349.713 31.0919 353.983 28.6088C358.33 26.0481 363.143 24.8066 368.578 24.8066C374.012 24.8066 378.903 26.0481 383.251 28.6088C387.521 31.1695 390.936 34.5837 393.498 38.9291C396.06 43.2745 397.302 48.2407 397.302 53.6724L393.576 54.526C393.576 59.8025 392.411 64.5359 390.082 68.7261C387.753 72.9163 384.648 76.2529 380.611 78.736C376.574 81.1415 371.994 82.383 366.87 82.383ZM368.578 73.7698C372.304 73.7698 375.642 72.9163 378.515 71.1316C381.387 69.3468 383.639 66.9414 385.347 63.9151C387.055 60.8889 387.909 57.4746 387.909 53.6724C387.909 49.7926 387.055 46.3008 385.347 43.2745C383.639 40.2482 381.387 37.8428 378.515 36.058C375.642 34.2733 372.304 33.4198 368.578 33.4198C365.007 33.4198 361.668 34.2733 358.796 36.058C355.846 37.8428 353.517 40.2482 351.809 43.2745C350.101 46.3008 349.247 49.7926 349.247 53.6724C349.247 57.4746 350.101 60.8889 351.809 63.9151C353.517 66.9414 355.846 69.3468 358.796 71.1316C361.668 72.9163 364.929 73.7698 368.578 73.7698ZM392.334 82.0726C390.936 82.0726 389.772 81.6071 388.84 80.6759C387.909 79.7447 387.443 78.5808 387.443 77.1841V60.6561L389.384 50.5685L397.147 53.5948V77.1841C397.147 78.5808 396.681 79.7447 395.827 80.6759C394.973 81.6071 393.809 82.0726 392.334 82.0726Z" fill="#E0E2EA"/>
<path d="M417.875 106.283C416.4 106.283 415.236 105.817 414.382 104.964C413.45 104.033 413.062 102.869 413.062 101.472V53.5172C413.141 48.0855 414.46 43.1193 416.944 38.7739C419.506 34.4285 422.844 31.0143 427.192 28.5312C431.461 26.0481 436.275 24.8066 441.632 24.8066C447.144 24.8066 452.112 26.0481 456.46 28.6088C460.807 31.1695 464.223 34.5837 466.707 38.8515C469.269 43.1969 470.512 48.0855 470.512 53.6724C470.512 59.1041 469.347 64.0703 466.94 68.4157C464.534 72.7611 461.351 76.1753 457.236 78.6584C453.121 81.1415 448.541 82.383 443.417 82.383C439.147 82.383 435.188 81.5295 431.694 79.7447C428.201 77.96 425.251 75.5545 422.844 72.5283V101.394C422.844 102.869 422.378 104.033 421.524 104.886C420.515 105.817 419.351 106.283 417.875 106.283ZM441.632 73.7698C445.28 73.7698 448.619 72.9163 451.491 71.1316C454.364 69.3468 456.693 66.9414 458.401 63.9151C460.108 60.8888 460.962 57.4746 460.962 53.6724C460.962 49.7926 460.108 46.3007 458.401 43.2745C456.693 40.2482 454.364 37.8428 451.491 36.058C448.619 34.2733 445.28 33.4198 441.632 33.4198C437.983 33.4198 434.644 34.2733 431.772 36.058C428.9 37.8428 426.571 40.2482 424.94 43.2745C423.31 46.3007 422.456 49.7926 422.456 53.6724C422.456 57.4746 423.31 60.8888 424.94 63.9927C426.571 67.0965 428.9 69.502 431.772 71.2091C434.722 72.9163 437.983 73.7698 441.632 73.7698Z" fill="#E0E2EA"/>
<path d="M491.007 106.283C489.532 106.283 488.367 105.817 487.513 104.964C486.582 104.033 486.194 102.869 486.194 101.472V53.5172C486.271 48.0855 487.591 43.1193 490.075 38.7739C492.637 34.4285 495.976 31.0143 500.323 28.5312C504.593 26.0481 509.406 24.8066 514.763 24.8066C520.275 24.8066 525.244 26.0481 529.591 28.6088C533.939 31.1695 537.355 34.5837 539.839 38.8515C542.401 43.1969 543.643 48.0855 543.643 53.6724C543.643 59.1041 542.478 64.0703 540.072 68.4157C537.665 72.7611 534.482 76.1753 530.367 78.6584C526.253 81.1415 521.672 82.383 516.549 82.383C512.279 82.383 508.319 81.5295 504.826 79.7447C501.332 77.96 498.382 75.5545 495.976 72.5283V101.394C495.976 102.869 495.51 104.033 494.656 104.886C493.647 105.817 492.482 106.283 491.007 106.283ZM514.763 73.7698C518.412 73.7698 521.75 72.9163 524.623 71.1316C527.495 69.3468 529.824 66.9414 531.532 63.9151C533.24 60.8888 534.094 57.4746 534.094 53.6724C534.094 49.7926 533.24 46.3007 531.532 43.2745C529.824 40.2482 527.495 37.8428 524.623 36.058C521.75 34.2733 518.412 33.4198 514.763 33.4198C511.114 33.4198 507.776 34.2733 504.903 36.058C502.031 37.8428 499.702 40.2482 498.072 43.2745C496.441 46.3007 495.587 49.7926 495.587 53.6724C495.587 57.4746 496.441 60.8888 498.072 63.9927C499.702 67.0965 502.031 69.502 504.903 71.2091C507.854 72.9163 511.114 73.7698 514.763 73.7698Z" fill="#E0E2EA"/>
<path d="M561.809 83.6252C560.024 83.6252 558.471 82.9268 557.074 81.6077C555.754 80.2885 555.055 78.659 555.055 76.8743C555.055 74.9344 555.754 73.3049 557.074 71.9081C558.393 70.589 560.024 69.8906 561.809 69.8906C563.75 69.8906 565.38 70.589 566.7 71.9081C568.02 73.2273 568.641 74.9344 568.641 76.8743C568.641 78.659 568.02 80.2109 566.7 81.6077C565.38 82.9268 563.75 83.6252 561.809 83.6252Z" fill="#E0E2EA"/>
<path d="M589.369 15.4181C587.662 15.4181 586.109 14.7974 584.867 13.4782C583.547 12.2367 582.926 10.6848 582.926 8.9776C582.926 7.11529 583.547 5.56337 584.867 4.32183C586.109 3.08029 587.662 2.53711 589.369 2.53711C591.077 2.53711 592.63 3.15788 593.872 4.32183C595.114 5.56337 595.813 7.0377 595.813 8.9776C595.813 10.6848 595.192 12.2367 593.95 13.4782C592.708 14.7974 591.155 15.4181 589.369 15.4181ZM589.369 81.9957C587.894 81.9957 586.73 81.5301 585.876 80.6766C584.944 79.7454 584.556 78.5815 584.556 77.1847V30.0838C584.556 28.6095 585.022 27.4455 585.876 26.592C586.808 25.6608 587.972 25.2728 589.369 25.2728C590.767 25.2728 592.009 25.7384 592.863 26.592C593.795 27.5231 594.183 28.6871 594.183 30.0838V77.1072C594.183 78.5815 593.717 79.7454 592.863 80.599C592.009 81.5301 590.767 81.9957 589.369 81.9957Z" fill="#E0E2EA"/>
<path d="M639.909 82.3836C634.397 82.3836 629.429 81.1421 625.081 78.7366C620.734 76.2535 617.395 72.9169 614.911 68.5715C612.427 64.2261 611.262 59.2599 611.262 53.673C611.262 48.0085 612.504 42.9647 614.911 38.6969C617.395 34.3515 620.734 31.0149 625.081 28.5318C629.429 26.0487 634.32 24.8848 639.909 24.8848C645.421 24.8848 650.39 26.1263 654.66 28.5318C658.93 31.0149 662.346 34.3515 664.83 38.6969C667.314 43.0423 668.556 48.0085 668.556 53.673C668.556 59.2599 667.314 64.2261 664.908 68.5715C662.423 72.9169 659.085 76.2535 654.815 78.7366C650.468 81.1421 645.499 82.3836 639.909 82.3836ZM639.909 73.7704C643.636 73.7704 646.974 72.9169 649.847 71.2098C652.719 69.5026 655.048 67.0972 656.678 64.0709C658.309 61.0446 659.163 57.5528 659.163 53.673C659.163 49.7156 658.309 46.2238 656.678 43.1975C655.048 40.1713 652.719 37.7658 649.847 36.0587C646.974 34.3515 643.636 33.498 639.909 33.498C636.183 33.498 632.845 34.3515 629.972 36.0587C627.1 37.7658 624.771 40.1713 623.14 43.1975C621.51 46.2238 620.656 49.7156 620.656 53.673C620.656 57.6304 621.51 61.1222 623.14 64.0709C624.771 67.0196 627.1 69.425 629.972 71.2098C632.845 72.9169 636.183 73.7704 639.909 73.7704Z" fill="#E0E2EA"/>
<path d="M46.9162 15.9338C46.9162 19.7683 43.85 22.8675 40.0561 22.8675C36.2623 22.8675 33.248 19.7158 33.248 15.9338C33.248 12.1517 36.3143 9 40.0561 9C43.85 9 46.9162 12.0992 46.9162 15.9338Z" fill="#E0E2EA"/>
<path d="M79.3459 40.1491C78.6703 36.4721 77.3191 32.9527 75.3442 29.7484C69.7834 21.2388 60.4288 16.0385 50.2946 15.8809C46.6047 15.9335 42.9148 16.6689 39.4848 18.0871C30.9097 21.2914 24.7772 26.9644 21.2432 30.9566C22.2826 35.5266 23.322 40.0965 24.3614 44.7191L65.314 67.3588V67.3063L65.3659 67.3588L78.4624 62.5787C80.0215 57.1683 81.3208 49.1314 79.3459 40.1491Z" fill="#E0E2EA"/>
<path d="M27.9996 43.721C27.9996 43.721 29.2468 52.7559 18.7489 57.0107C8.25088 61.2655 4.97676 55.2772 1.07899 63.3141C-2.81877 71.351 4.92479 63.997 7.21148 64.4697C9.49817 64.9425 22.1269 65.1001 25.401 63.6818C30.3382 61.5807 34.132 57.641 36.1069 49.8668C38.0818 42.0926 27.9996 43.721 27.9996 43.721Z" fill="#E0E2EA"/>
<path d="M50.9184 57.3788C50.9184 57.3788 41.6157 56.9061 41.6677 68.3573C41.7197 79.8085 33.6643 79.2832 27.4799 85.4815C19.0607 93.9386 22.2309 81.5419 24.1018 80.1762C35.5872 71.8241 33.5604 70.9837 33.6123 67.3592C33.6643 61.9488 35.8471 56.9061 42.2394 52.126C48.6317 47.3459 50.9184 57.3788 50.9184 57.3788Z" fill="#E0E2EA"/>
<path d="M63.4427 65.0477C63.4427 65.0477 54.7117 67.3065 54.7637 78.7577C54.8157 90.2089 61.6758 91.1544 55.6992 97.6679C52.0093 101.66 52.1652 95.7244 52.3211 92.3625C52.4251 90.0513 46.1367 78.6526 46.1367 75.0281C46.1886 69.6177 48.3714 64.575 54.7637 59.7949C61.1561 55.0148 63.4427 65.0477 63.4427 65.0477Z" fill="#E0E2EA"/>
<path d="M90.0004 39.2043C90.0004 43.0388 86.9342 46.138 83.1404 46.138C79.3465 46.138 76.2803 43.0388 76.2803 39.2043C76.2803 35.3697 79.3465 32.2705 83.1404 32.2705C86.9342 32.323 90.0004 35.4222 90.0004 39.2043Z" fill="#E0E2EA"/>
</g>
<defs>
<clipPath id="clip0_1259_80">
<rect width="669" height="107" fill="white"/>
</clipPath>
</defs>
</svg>
