<svg width="669" height="107" viewBox="0 0 669 107" fill="none" xmlns="http://www.w3.org/2000/svg">
<path d="M144.448 81.9954C143.439 81.9954 142.507 81.685 141.653 81.1418C140.799 80.521 140.256 79.8227 139.867 78.8915L124.185 31.9458C123.719 29.9283 123.719 28.2987 124.263 27.0572C124.806 25.8157 125.971 25.1949 127.756 25.1949C128.921 25.1949 129.93 25.5053 130.784 26.2036C131.638 26.8244 132.259 27.9108 132.725 29.3851L146.233 71.4423H143.05L155.86 28.9195C156.171 27.9108 156.636 26.9796 157.49 26.3588C158.267 25.6605 159.354 25.3501 160.673 25.3501C161.915 25.3501 162.925 25.6605 163.701 26.3588C164.477 26.9796 165.021 27.9108 165.331 28.9971L176.355 69.5024H174.725L187.612 29.5403C188.544 26.7468 190.174 25.3501 192.503 25.3501C194.289 25.3501 195.531 25.9708 196.152 27.29C196.773 28.6091 196.773 30.161 196.075 32.101L180.392 79.0467C180.082 79.9779 179.538 80.6762 178.762 81.297C177.908 81.9178 176.976 82.1505 175.967 82.1505C174.958 82.1505 173.949 81.8402 173.095 81.297C172.163 80.6762 171.62 79.9779 171.309 79.0467L159.897 38.1535H160.906L149.028 79.0467C148.718 79.9779 148.174 80.6762 147.398 81.297C146.466 81.685 145.535 81.9954 144.448 81.9954Z" fill="#1D1D1B"/>
<path d="M231.864 82.3833C226.197 82.3833 221.15 81.1418 216.725 78.7363C212.3 76.2532 208.807 72.9166 206.322 68.5712C203.838 64.2258 202.596 59.2596 202.596 53.6727C202.596 48.0082 203.76 42.9644 206.089 38.6966C208.418 34.3512 211.679 31.0146 215.871 28.5315C220.063 26.0484 224.877 24.8845 230.234 24.8845C235.59 24.8845 240.171 26.0484 244.13 28.4539C248.012 30.8594 251.04 34.1184 253.136 38.3086C255.232 42.4988 256.241 47.3098 256.241 52.8191C256.241 54.0607 255.853 55.0694 254.999 55.8454C254.145 56.6214 253.058 57.0093 251.816 57.0093H209.272V49.2497H251.971L247.624 52.276C247.624 48.6289 246.925 45.3699 245.528 42.4988C244.13 39.6278 242.189 37.3775 239.627 35.6704C237.065 34.0409 233.96 33.1873 230.389 33.1873C226.429 33.1873 223.014 34.0408 220.141 35.8256C217.269 37.6103 215.095 40.0158 213.62 43.1196C212.145 46.2235 211.368 49.7929 211.368 53.6727C211.368 57.6301 212.222 61.1219 214.008 64.2258C215.794 67.3296 218.2 69.7351 221.306 71.5198C224.411 73.3046 227.905 74.1581 231.942 74.1581C234.193 74.1581 236.522 73.7701 238.851 72.9166C241.18 72.063 243.043 71.1319 244.518 70.0455C245.45 69.3471 246.537 68.9592 247.624 68.9592C248.711 68.9592 249.72 69.2696 250.496 69.9679C251.583 70.9767 252.204 71.9854 252.282 73.1494C252.359 74.3133 251.816 75.2445 250.729 76.098C248.478 77.9603 245.528 79.5123 242.034 80.7538C238.385 81.7626 235.047 82.3833 231.864 82.3833Z" fill="#1D1D1B"/>
<path d="M298.474 82.3833C293.04 82.3833 288.226 81.1418 283.879 78.6587C279.531 76.1756 276.115 72.7614 273.631 68.416C271.147 64.0706 269.827 59.1044 269.749 53.6727V5.7958C269.749 4.32147 270.215 3.15753 271.069 2.30397C272.001 1.37281 273.165 0.984833 274.563 0.984833C276.038 0.984833 277.202 1.45041 278.056 2.30397C278.988 3.23512 279.376 4.39907 279.376 5.7958V34.6616C281.705 31.6354 284.655 29.2299 288.226 27.4452C291.72 25.6604 295.679 24.8069 299.949 24.8069C305.073 24.8069 309.653 26.0484 313.768 28.6091C317.883 31.1698 321.066 34.584 323.472 38.8518C325.879 43.1972 327.043 48.0858 327.043 53.5175C327.043 58.9492 325.801 63.9154 323.239 68.2608C320.677 72.6062 317.262 76.098 312.992 78.5811C308.799 81.1418 303.908 82.3833 298.474 82.3833ZM298.474 73.7701C302.123 73.7701 305.461 72.9166 308.334 71.1319C311.206 69.3471 313.535 66.9417 315.243 63.8378C316.951 60.734 317.805 57.3197 317.805 53.5175C317.805 49.6377 316.951 46.2235 315.243 43.1972C313.535 40.1709 311.206 37.7655 308.334 36.0583C305.461 34.2736 302.123 33.4201 298.474 33.4201C294.825 33.4201 291.487 34.2736 288.615 36.0583C285.742 37.8431 283.413 40.2485 281.783 43.1972C280.152 46.1459 279.298 49.6377 279.298 53.5175C279.298 57.3197 280.152 60.734 281.783 63.8378C283.413 66.9417 285.742 69.3471 288.615 71.1319C291.487 72.9166 294.748 73.7701 298.474 73.7701Z" fill="#1D1D1B"/>
<path d="M366.87 82.3833C361.746 82.3833 357.166 81.1418 353.051 78.6587C348.936 76.1756 345.753 72.7614 343.424 68.416C341.095 64.0706 339.931 59.1044 339.931 53.6727C339.931 48.1634 341.173 43.1972 343.735 38.8518C346.297 34.5064 349.713 31.0922 353.983 28.6091C358.33 26.0484 363.143 24.8069 368.578 24.8069C374.012 24.8069 378.903 26.0484 383.251 28.6091C387.521 31.1698 390.936 34.584 393.498 38.9294C396.06 43.2748 397.302 48.241 397.302 53.6727L393.576 54.5263C393.576 59.8028 392.411 64.5362 390.082 68.7264C387.753 72.9166 384.648 76.2532 380.611 78.7363C376.574 81.1418 371.994 82.3833 366.87 82.3833ZM368.578 73.7701C372.304 73.7701 375.642 72.9166 378.515 71.1319C381.387 69.3471 383.639 66.9417 385.347 63.9154C387.055 60.8892 387.909 57.4749 387.909 53.6727C387.909 49.7929 387.055 46.3011 385.347 43.2748C383.639 40.2485 381.387 37.8431 378.515 36.0583C375.642 34.2736 372.304 33.4201 368.578 33.4201C365.007 33.4201 361.668 34.2736 358.796 36.0583C355.846 37.8431 353.517 40.2485 351.809 43.2748C350.101 46.3011 349.247 49.7929 349.247 53.6727C349.247 57.4749 350.101 60.8892 351.809 63.9154C353.517 66.9417 355.846 69.3471 358.796 71.1319C361.668 72.9166 364.929 73.7701 368.578 73.7701ZM392.334 82.0729C390.936 82.0729 389.772 81.6074 388.84 80.6762C387.909 79.745 387.443 78.5811 387.443 77.1844V60.6564L389.384 50.5688L397.147 53.5951V77.1844C397.147 78.5811 396.681 79.745 395.827 80.6762C394.973 81.6074 393.809 82.0729 392.334 82.0729Z" fill="#1D1D1B"/>
<path d="M417.875 106.283C416.4 106.283 415.236 105.817 414.382 104.964C413.45 104.033 413.062 102.869 413.062 101.472V53.5175C413.14 48.0858 414.46 43.1196 416.944 38.7742C419.506 34.4288 422.844 31.0146 427.192 28.5315C431.461 26.0484 436.275 24.8069 441.632 24.8069C447.144 24.8069 452.112 26.0484 456.46 28.6091C460.807 31.1698 464.223 34.584 466.707 38.8518C469.269 43.1972 470.512 48.0858 470.512 53.6727C470.512 59.1044 469.347 64.0706 466.94 68.416C464.534 72.7614 461.351 76.1756 457.236 78.6587C453.121 81.1418 448.541 82.3833 443.417 82.3833C439.147 82.3833 435.188 81.5298 431.694 79.745C428.201 77.9603 425.251 75.5548 422.844 72.5286V101.394C422.844 102.869 422.378 104.033 421.524 104.886C420.515 105.817 419.351 106.283 417.875 106.283ZM441.632 73.7701C445.28 73.7701 448.619 72.9166 451.491 71.1319C454.364 69.3471 456.693 66.9417 458.401 63.9154C460.108 60.8891 460.962 57.4749 460.962 53.6727C460.962 49.7929 460.108 46.301 458.401 43.2748C456.693 40.2485 454.364 37.8431 451.491 36.0583C448.619 34.2736 445.28 33.4201 441.632 33.4201C437.983 33.4201 434.644 34.2736 431.772 36.0583C428.9 37.8431 426.571 40.2485 424.94 43.2748C423.31 46.301 422.456 49.7929 422.456 53.6727C422.456 57.4749 423.31 60.8891 424.94 63.993C426.571 67.0968 428.9 69.5023 431.772 71.2094C434.722 72.9166 437.983 73.7701 441.632 73.7701Z" fill="#1D1D1B"/>
<path d="M491.007 106.283C489.532 106.283 488.367 105.817 487.513 104.964C486.582 104.033 486.194 102.869 486.194 101.472V53.5175C486.271 48.0858 487.591 43.1196 490.075 38.7742C492.637 34.4288 495.976 31.0146 500.323 28.5315C504.593 26.0484 509.406 24.8069 514.763 24.8069C520.275 24.8069 525.244 26.0484 529.591 28.6091C533.939 31.1698 537.355 34.584 539.839 38.8518C542.401 43.1972 543.643 48.0858 543.643 53.6727C543.643 59.1044 542.478 64.0706 540.072 68.416C537.665 72.7614 534.482 76.1756 530.367 78.6587C526.253 81.1418 521.672 82.3833 516.549 82.3833C512.279 82.3833 508.319 81.5298 504.826 79.745C501.332 77.9603 498.382 75.5548 495.976 72.5286V101.394C495.976 102.869 495.51 104.033 494.656 104.886C493.647 105.817 492.482 106.283 491.007 106.283ZM514.763 73.7701C518.412 73.7701 521.75 72.9166 524.623 71.1319C527.495 69.3471 529.824 66.9417 531.532 63.9154C533.24 60.8891 534.094 57.4749 534.094 53.6727C534.094 49.7929 533.24 46.301 531.532 43.2748C529.824 40.2485 527.495 37.8431 524.623 36.0583C521.75 34.2736 518.412 33.4201 514.763 33.4201C511.114 33.4201 507.776 34.2736 504.903 36.0583C502.031 37.8431 499.702 40.2485 498.072 43.2748C496.441 46.301 495.587 49.7929 495.587 53.6727C495.587 57.4749 496.441 60.8891 498.072 63.993C499.702 67.0968 502.031 69.5023 504.903 71.2094C507.854 72.9166 511.114 73.7701 514.763 73.7701Z" fill="#1D1D1B"/>
<path d="M561.809 83.6249C560.024 83.6249 558.471 82.9265 557.074 81.6074C555.754 80.2882 555.055 78.6587 555.055 76.874C555.055 74.9341 555.754 73.3046 557.074 71.9078C558.393 70.5887 560.024 69.8903 561.809 69.8903C563.75 69.8903 565.38 70.5887 566.7 71.9078C568.02 73.227 568.641 74.9341 568.641 76.874C568.641 78.6587 568.02 80.2106 566.7 81.6074C565.38 82.9265 563.75 83.6249 561.809 83.6249Z" fill="#1D1D1B"/>
<path d="M589.369 15.4177C587.662 15.4177 586.109 14.797 584.867 13.4778C583.547 12.2363 582.926 10.6844 582.926 8.97723C582.926 7.11492 583.547 5.563 584.867 4.32146C586.109 3.07992 587.662 2.53674 589.369 2.53674C591.077 2.53674 592.63 3.15751 593.872 4.32146C595.114 5.563 595.813 7.03733 595.813 8.97723C595.813 10.6844 595.192 12.2363 593.95 13.4778C592.708 14.797 591.155 15.4177 589.369 15.4177ZM589.369 81.9953C587.894 81.9953 586.73 81.5297 585.876 80.6762C584.944 79.745 584.556 78.5811 584.556 77.1843V30.0834C584.556 28.6091 585.022 27.4451 585.876 26.5916C586.808 25.6604 587.972 25.2724 589.369 25.2724C590.767 25.2724 592.009 25.738 592.863 26.5916C593.795 27.5227 594.183 28.6867 594.183 30.0834V77.1068C594.183 78.5811 593.717 79.745 592.863 80.5986C592.009 81.5297 590.767 81.9953 589.369 81.9953Z" fill="#1D1D1B"/>
<path d="M639.909 82.3833C634.397 82.3833 629.429 81.1418 625.081 78.7363C620.734 76.2532 617.395 72.9166 614.911 68.5712C612.427 64.2258 611.262 59.2596 611.262 53.6727C611.262 48.0082 612.504 42.9644 614.911 38.6966C617.395 34.3512 620.734 31.0146 625.081 28.5315C629.429 26.0484 634.32 24.8845 639.909 24.8845C645.421 24.8845 650.39 26.126 654.66 28.5315C658.93 31.0146 662.346 34.3512 664.83 38.6966C667.314 43.042 668.556 48.0082 668.556 53.6727C668.556 59.2596 667.314 64.2258 664.908 68.5712C662.423 72.9166 659.085 76.2532 654.815 78.7363C650.468 81.1418 645.499 82.3833 639.909 82.3833ZM639.909 73.7701C643.636 73.7701 646.974 72.9166 649.847 71.2095C652.719 69.5023 655.048 67.0969 656.678 64.0706C658.309 61.0443 659.163 57.5525 659.163 53.6727C659.163 49.7153 658.309 46.2235 656.678 43.1972C655.048 40.171 652.719 37.7655 649.847 36.0584C646.974 34.3512 643.636 33.4977 639.909 33.4977C636.183 33.4977 632.845 34.3512 629.972 36.0584C627.1 37.7655 624.771 40.171 623.14 43.1972C621.51 46.2235 620.656 49.7153 620.656 53.6727C620.656 57.6301 621.51 61.1219 623.14 64.0706C624.771 67.0193 627.1 69.4247 629.972 71.2095C632.845 72.9166 636.183 73.7701 639.909 73.7701Z" fill="#1D1D1B"/>
<path d="M46.9167 15.9338C46.9167 19.7683 43.8505 22.8675 40.0566 22.8675C36.2628 22.8675 33.2485 19.7158 33.2485 15.9338C33.2485 12.1517 36.3148 9 40.0566 9C43.8505 9 46.9167 12.0992 46.9167 15.9338Z" fill="#1D1D1B"/>
<path d="M79.3461 40.1494C78.6705 36.4724 77.3193 32.953 75.3444 29.7487C69.7836 21.2391 60.429 16.0388 50.2948 15.8812C46.6049 15.9338 42.915 16.6692 39.485 18.0874C30.9099 21.2917 24.7774 26.9647 21.2434 30.9569C22.2828 35.5269 23.3222 40.0968 24.3616 44.7194L65.3142 67.3591V67.3066L65.3661 67.3591L78.4626 62.579C80.0217 57.1686 81.321 49.1317 79.3461 40.1494Z" fill="#1D1D1B"/>
<path d="M27.9996 43.7213C27.9996 43.7213 29.2468 52.7562 18.7489 57.011C8.25088 61.2658 4.97676 55.2775 1.07899 63.3144C-2.81877 71.3513 4.92479 63.9973 7.21148 64.47C9.49817 64.9428 22.1269 65.1004 25.401 63.6821C30.3382 61.581 34.132 57.6413 36.1069 49.8671C38.0818 42.0929 27.9996 43.7213 27.9996 43.7213Z" fill="#1D1D1B"/>
<path d="M50.9184 57.3787C50.9184 57.3787 41.6157 56.906 41.6677 68.3572C41.7197 79.8084 33.6643 79.2831 27.4799 85.4814C19.0607 93.9385 22.2309 81.5418 24.1018 80.1761C35.5872 71.824 33.5604 70.9836 33.6123 67.3591C33.6643 61.9487 35.8471 56.906 42.2394 52.1259C48.6317 47.3458 50.9184 57.3787 50.9184 57.3787Z" fill="#1D1D1B"/>
<path d="M63.4432 65.0478C63.4432 65.0478 54.7122 67.3066 54.7642 78.7578C54.8162 90.209 61.6763 91.1545 55.6997 97.668C52.0098 101.66 52.1657 95.7245 52.3216 92.3626C52.4256 90.0514 46.1372 78.6527 46.1372 75.0282C46.1891 69.6178 48.3719 64.5751 54.7642 59.795C61.1566 55.0149 63.4432 65.0478 63.4432 65.0478Z" fill="#1D1D1B"/>
<path d="M90 39.2039C90 43.0384 86.9338 46.1376 83.14 46.1376C79.3461 46.1376 76.2799 43.0384 76.2799 39.2039C76.2799 35.3693 79.3461 32.2701 83.14 32.2701C86.9338 32.3226 90 35.4218 90 39.2039Z" fill="#1D1D1B"/>
</svg>
